<?xml version="1.0" encoding="UTF-8"?>
<svg xmlns="http://www.w3.org/2000/svg" width="175" height="33" viewBox="0 0 175 33" fill="none">
  <g clip-path="url(#clip0_9814_5336)">
    <path d="M158.138 32.9494L168.536 8.72329H162.623L158.242 18.9399L153.407 8.72329H147.426L155.424 25.5007L152.225 32.9494H158.138ZM140.672 25.2955V15.8307C141.994 14.5313 143.733 13.8146 146.48 13.7114V8.44898C143.976 8.44898 142.168 9.23582 140.672 10.5001V8.72329H135.038V25.2955H140.672ZM121.434 25.2955V14.9077C122.408 13.8146 123.521 13.2329 124.564 13.2329C126.407 13.2329 127.624 14.3611 127.624 16.7186V25.2955H133.293V15.8307C133.293 11.1148 130.372 8.20973 126.095 8.20973C124.285 8.20973 122.791 8.79135 121.434 9.85044V8.72329H115.8V25.2955H121.434ZM108.85 15.3862H101.964C102.381 13.7114 103.598 12.6183 105.511 12.6183C107.319 12.6183 108.536 13.5753 108.85 15.3862ZM105.754 25.6719C109.928 25.6719 113.162 23.5186 113.962 20.1011H108.397C107.911 20.8539 107.006 21.2973 105.824 21.2973C103.667 21.2973 102.486 20.1361 102.033 18.6326H114.066L114.032 18.5294C114.135 17.9148 114.135 17.2651 114.135 16.6505C114.135 11.6613 110.415 8.34688 105.511 8.34688C100.12 8.34688 96.5385 11.9686 96.5385 16.9919C96.5385 22.0491 100.226 25.6719 105.754 25.6719ZM82.9872 25.2955V14.9077C83.9607 13.8146 85.0731 13.2329 86.1171 13.2329C87.9607 13.2329 89.1776 14.3611 89.1776 16.7186V25.2955H94.8461V15.8307C94.8461 11.1148 91.9254 8.20973 87.6469 8.20973C85.8385 8.20973 84.3429 8.79135 82.9861 9.85044V0.000976562H77.3529V25.2955H82.9872ZM56.9949 25.2955V22.0491L59.3594 19.5545L63.3935 25.2955H70.1402L63.1854 15.4883L69.584 8.72329H62.8726L56.9949 14.9417V0.000976562H51.3606V25.2955H56.9949ZM41.0138 25.6719C45.6745 25.6719 49.256 22.7669 49.6382 18.4954H44.3177C44.0391 19.999 42.7528 20.991 41.0138 20.991C38.6141 20.991 37.1537 19.2482 37.1537 16.9919C37.1537 14.7365 38.6141 13.0288 41.0138 13.0288C42.7528 13.0288 44.0391 14.0188 44.3177 15.5234H49.6382C49.255 11.2519 45.6745 8.34688 41.0138 8.34688C35.6923 8.34688 31.798 11.9686 31.798 16.9919C31.798 22.0491 35.6923 25.6719 41.0138 25.6719ZM21.5548 21.0931C19.2597 21.0931 17.5901 19.2812 17.5901 16.9919C17.5901 14.7025 19.2597 12.8565 21.5548 12.8565C22.808 12.8565 24.024 13.2329 25.068 14.4292V19.5545C24.024 20.7508 22.807 21.0931 21.5548 21.0931ZM19.8397 25.6368C21.6832 25.6368 23.213 25.1594 24.4652 24.3725V25.2955H30.0995V8.72329H24.4652V9.6112C23.212 8.82538 21.6822 8.34688 19.8397 8.34688C15.2836 8.34688 11.4587 12.0377 11.4587 16.9919C11.4587 21.913 15.2836 25.6368 19.8397 25.6368ZM0.914062 33.001C7.59131 32.8597 9.71246 29.7804 9.71246 24.5076V8.72329H4.04399V25.2501C4.04399 27.2322 3.42256 27.8994 0.914062 27.8994V33.001Z" fill="#06185F"></path>
    <path d="M6.85737 0.000976562C8.80244 0.000976562 10.3788 1.54991 10.3788 3.46082C10.3788 5.37276 8.80244 6.9217 6.85737 6.9217C4.9123 6.9217 3.33594 5.37276 3.33594 3.46082C3.3349 1.54991 4.9123 0.000976562 6.85737 0.000976562Z" fill="url(#paint0_linear_9814_5336)"></path>
    <path d="M172.309 11.3519V8.65723H172.947L173.358 9.66476L173.602 10.3433H173.637L173.882 9.66476L174.284 8.65723H174.913V11.3519H174.433V10.1608L174.494 9.24813H174.459L173.821 10.9353H173.41L172.773 9.24813H172.736L172.798 10.1608V11.3519H172.309ZM170.49 11.3519V9.12645H169.625V8.65723H171.888V9.12645H171.015V11.3519H170.49Z" fill="#06185F"></path>
  </g>
  <defs>
    <linearGradient id="paint0_linear_9814_5336" x1="355.479" y1="124.179" x2="355.479" y2="627.06" gradientUnits="userSpaceOnUse">
      <stop stop-color="#76DCFD"></stop>
      <stop offset="1" stop-color="#085CE5"></stop>
    </linearGradient>
    <clipPath id="clip0_9814_5336">
      <rect width="174" height="33" fill="white" transform="translate(0.914062)"></rect>
    </clipPath>
  </defs>
</svg>
